<!--?xml version="1.0" standalone="no"?-->
              <svg id="sw-js-blob-svg" viewBox="0 0 100 100" xmlns="http://www.w3.org/2000/svg" version="1.1">
                    <defs> 
                        <linearGradient id="sw-gradient" x1="0" x2="1" y1="1" y2="0">
                            <stop id="stop1" stop-color="rgba(228.746, 228.746, 228.746, 1)" offset="0%"></stop>
                            <stop id="stop2" stop-color="rgba(226.469, 226.469, 226.469, 1)" offset="100%"></stop>
                        </linearGradient>
                    </defs>
                <path fill="url(#sw-gradient)" d="M16.1,-15.5C22.9,-13.4,31.9,-10.3,32.4,-5.9C32.9,-1.6,24.9,4.1,20.8,12.8C16.7,21.6,16.6,33.4,12.2,36.3C7.7,39.1,-1,33,-7.5,27.6C-13.9,22.2,-18,17.5,-23,11.8C-28,6.2,-33.9,-0.4,-34.7,-8C-35.6,-15.5,-31.5,-24.1,-24.9,-26.2C-18.3,-28.4,-9.1,-24.1,-2.3,-21.5C4.6,-18.8,9.3,-17.7,16.1,-15.5Z" width="100%" height="100%" transform="translate(50 50)" stroke-width="0" style="transition: all 0.3s ease 0s;" stroke="url(#sw-gradient)"></path>
              </svg>